<?xml version="1.0" encoding="UTF-8"?>
<svg version="1.1" xmlns="http://www.w3.org/2000/svg" width="75" height="72">
<path d="M0 0 C24.75 0 49.5 0 75 0 C75 23.76 75 47.52 75 72 C50.25 72 25.5 72 0 72 C0 48.24 0 24.48 0 0 Z " fill="#2A6FC7" transform="translate(0,0)"/>
<path d="M0 0 C24.75 0 49.5 0 75 0 C75 23.76 75 47.52 75 72 C50.25 72 25.5 72 0 72 C0 48.24 0 24.48 0 0 Z M25 5 C25 5.66 25 6.32 25 7 C23.35 7.33 21.7 7.66 20 8 C20 8.66 20 9.32 20 10 C19.34 10 18.68 10 18 10 C14.93757784 14.84060277 13.46588495 18.29290936 13 24 C12.34 24 11.68 24 11 24 C9.77143 26.68749688 9 28.64593705 9 31.625 C9 34 9 34 7 37 C7.1573894 39.10718549 7.1573894 39.10718549 7.8125 41.3125 C8.52556628 44.05780516 9.04446815 46.47136234 9.3125 49.3125 C10.23818595 52.93109054 11.90415678 54.03678235 15 56 C15.66 56 16.32 56 17 56 C17.26039062 56.59425781 17.52078125 57.18851563 17.7890625 57.80078125 C19.07769569 60.14110539 20.34810441 61.46596641 22.375 63.1875 C23.25285156 63.95126953 23.25285156 63.95126953 24.1484375 64.73046875 C27.3801128 66.94627987 30.41061003 67.12648983 34.25 67.0625 C35.4875 67.041875 36.725 67.02125 38 67 C38 67.66 38 68.32 38 69 C39.60495567 68.88557539 41.20898119 68.75805306 42.8125 68.625 C44.15248047 68.52058594 44.15248047 68.52058594 45.51953125 68.4140625 C48.24398499 68.13354964 48.24398499 68.13354964 51 66 C52.11375 65.71125 53.2275 65.4225 54.375 65.125 C58.09077159 63.97182951 60.14952078 62.59134474 63 60 C62.34 60 61.68 60 61 60 C63.875 55.125 63.875 55.125 65 54 C65.14542134 52.34095995 65.22719862 50.67624262 65.28125 49.01171875 C65.31863281 47.99529297 65.35601562 46.97886719 65.39453125 45.93164062 C65.42933594 44.86107422 65.46414062 43.79050781 65.5 42.6875 C65.56903296 40.58710834 65.64180321 38.48683538 65.71875 36.38671875 C65.74904297 35.45045654 65.77933594 34.51419434 65.81054688 33.54956055 C65.98202869 31.24184839 66.35710919 29.21660684 67 27 C66.34 27 65.68 27 65 27 C65 26.34 65 25.68 65 25 C63.68 24.67 62.36 24.34 61 24 C61.03480469 23.40832031 61.06960937 22.81664063 61.10546875 22.20703125 C61.27348484 17.30256149 61.32986734 13.9039824 58 10 C51.73187217 4.87153177 42.75049262 4.72805289 35 5 C31.66666667 5 28.33333333 5 25 5 Z " fill="#14214A" transform="translate(0,0)"/>
<path d="M0 0 C0.66 0.33 1.32 0.66 2 1 C1.50628906 1.53109375 1.01257812 2.0621875 0.50390625 2.609375 C-0.13675781 3.31578125 -0.77742188 4.0221875 -1.4375 4.75 C-2.07558594 5.44609375 -2.71367187 6.1421875 -3.37109375 6.859375 C-4.99081325 8.98792725 -5.58267256 10.39023405 -6 13 C-2.42386016 11.67550376 -0.75724324 9.53213082 1.57421875 6.6015625 C4.07218269 3.7956304 6.79373382 1.95938489 10 0 C10.99 0.33 11.98 0.66 13 1 C14.39690314 0.96969244 15.79325453 0.90380457 17.1875 0.8125 C22.38049213 0.71885588 25.5569857 2.4149735 30 5 C30 4.34 30 3.68 30 3 C30.66 3 31.32 3 32 3 C32.33 2.34 32.66 1.68 33 1 C33.99 1 34.98 1 36 1 C36 2.98 36 4.96 36 7 C34.68 7 33.36 7 32 7 C29.79932579 7.93283296 29.79932579 7.93283296 28 9 C27.401875 8.525625 26.80375 8.05125 26.1875 7.5625 C21.33403276 4.09573769 15.72949057 4.31996497 10 5 C5.39745415 6.6743356 2.70592634 8.9411105 0 13 C-1.80524952 18.45161444 -1.89275587 24.37422094 -1 30 C0.58083592 32.91311272 2.49448974 34.86635379 5 37 C6.00576354 37.99420304 7.00747912 38.9925764 8 40 C5.06296616 39.37063561 2.66211372 38.37579827 0 37 C5.94034029 41.61269977 11.42635157 43.5672358 19 43 C22.53552701 42.01818465 25.72926511 40.64994291 29 39 C29.75410156 38.62488281 30.50820313 38.24976563 31.28515625 37.86328125 C31.85105469 37.57839844 32.41695312 37.29351562 33 37 C32.01 36.67 31.02 36.34 30 36 C29.505 33.03 29.505 33.03 29 30 C23.39 29.67 17.78 29.34 12 29 C12 25.7 12 22.4 12 19 C20.91 19 29.82 19 39 19 C39.1546875 23.7953125 39.1546875 23.7953125 39.3125 28.6875 C39.35802002 29.68612061 39.40354004 30.68474121 39.45043945 31.71362305 C39.52252286 36.32928608 39.48793313 38.35923953 36.60546875 42.14453125 C34 44 34 44 32 44 C31.835 44.598125 31.67 45.19625 31.5 45.8125 C29.11677026 49.28804337 25.94726695 50.13977645 22 51 C12.43930258 52.25897059 4.88660495 50.64151303 -3 45 C-8.62205778 39.48438394 -10.89374355 35.10149916 -11.09765625 27.23046875 C-11.09108215 25.88277758 -11.07926444 24.53510293 -11.0625 23.1875 C-11.05798828 22.49462891 -11.05347656 21.80175781 -11.04882812 21.08789062 C-11.03713156 19.39188932 -11.01919924 17.69593297 -11 16 C-10.34 16 -9.68 16 -9 16 C-8.95875 15.175 -8.9175 14.35 -8.875 13.5 C-7.497829 7.99131598 -3.97160992 3.97160992 0 0 Z " fill="#1B2463" transform="translate(23,14)"/>
<path d="M0 0 C7.92 0 15.84 0 24 0 C17.87755102 7.34693878 17.87755102 7.34693878 14 10 C13.01 10 12.02 10 11 10 C10.88785156 10.56976563 10.77570312 11.13953125 10.66015625 11.7265625 C9.92558441 14.25627145 8.78935262 16.11806087 7.4375 18.375 C4.57137063 23.90194861 4.61989765 28.67201375 4.921875 34.80078125 C4.99374136 37.74370874 4.70442058 40.1556351 4 43 C4.66 43 5.32 43 6 43 C6.08636719 43.56847656 6.17273438 44.13695312 6.26171875 44.72265625 C7.34830257 50.69388294 9.0993047 54.33819342 13 59 C13.99 59.66 14.98 60.32 16 61 C16 61.66 16 62.32 16 63 C16.66 63 17.32 63 18 63 C18 63.66 18 64.32 18 65 C19.670625 65.185625 19.670625 65.185625 21.375 65.375 C25 66 25 66 27 68 C27.33 69.32 27.66 70.64 28 72 C18.76 72 9.52 72 0 72 C0 48.24 0 24.48 0 0 Z " fill="#131E43" transform="translate(0,0)"/>
<path d="M0 0 C1.10601562 -0.0103125 2.21203125 -0.020625 3.3515625 -0.03125 C12.29200123 0.09769864 12.29200123 0.09769864 15.96875 3.21484375 C16.7628125 4.05144531 17.556875 4.88804688 18.375 5.75 C21.0874618 7.0549484 21.0874618 7.0549484 23.375 7.75 C23.375 8.74 23.375 9.73 23.375 10.75 C24.365 10.75 25.355 10.75 26.375 10.75 C27.59193876 13.18387753 27.69459896 15.16838846 27.9375 17.875 C28.02128906 18.78507812 28.10507813 19.69515625 28.19140625 20.6328125 C28.25199219 21.33148437 28.31257813 22.03015625 28.375 22.75 C30.85 23.74 30.85 23.74 33.375 24.75 C33.46347317 28.20816686 33.51587725 31.66603579 33.5625 35.125 C33.58763672 36.09050781 33.61277344 37.05601563 33.63867188 38.05078125 C33.70650605 44.78897584 32.68640022 50.4212281 30.375 56.75 C31.035 57.08 31.695 57.41 32.375 57.75 C29.31382432 60.37386487 28.64326873 60.75 24.375 60.75 C24.94844937 57.88275314 25.2364515 56.8885485 27.375 54.75 C27.71308612 52.39226522 27.71308612 52.39226522 27.71875 49.6640625 C27.76322266 48.14425781 27.76322266 48.14425781 27.80859375 46.59375 C27.83050781 45.5315625 27.85242188 44.469375 27.875 43.375 C27.91846311 41.28365724 27.97022108 39.19246638 28.03125 37.1015625 C28.04994141 36.17166504 28.06863281 35.24176758 28.08789062 34.28369141 C28.38404405 31.67018778 29.05199854 30.00187524 30.375 27.75 C29.715 27.75 29.055 27.75 28.375 27.75 C28.375 27.09 28.375 26.43 28.375 25.75 C27.055 25.42 25.735 25.09 24.375 24.75 C24.26542969 23.91855469 24.15585937 23.08710938 24.04296875 22.23046875 C23.88441406 21.14378906 23.72585937 20.05710937 23.5625 18.9375 C23.41167969 17.85855469 23.26085938 16.77960937 23.10546875 15.66796875 C22.32849864 12.56424324 21.99600898 11.51240259 19.375 9.75 C11.55224564 7.14954951 2.44296627 5.06067791 -5.625 7.75 C-5.625 7.42 -5.625 7.09 -5.625 6.75 C-8.595 6.255 -8.595 6.255 -11.625 5.75 C-11.625 6.41 -11.625 7.07 -11.625 7.75 C-13.275 8.08 -14.925 8.41 -16.625 8.75 C-16.625 9.41 -16.625 10.07 -16.625 10.75 C-17.285 10.75 -17.945 10.75 -18.625 10.75 C-20.54705381 15.33335908 -22.08230076 20.02934033 -23.625 24.75 C-24.285 24.75 -24.945 24.75 -25.625 24.75 C-26.39749145 30.15744018 -26.72252461 35.28862186 -26.625 40.75 C-27.285 39.76 -27.945 38.77 -28.625 37.75 C-28.480625 38.33007812 -28.33625 38.91015625 -28.1875 39.5078125 C-27.11610572 44.01659675 -26.38554064 48.08054247 -26.625 52.75 C-26.07328125 52.9871875 -25.5215625 53.224375 -24.953125 53.46875 C-22.05725289 55.06245143 -19.82987963 57.03917273 -17.375 59.25 C-16.48296875 60.0440625 -15.5909375 60.838125 -14.671875 61.65625 C-12.625 63.75 -12.625 63.75 -12.625 65.75 C-8.005 66.41 -3.385 67.07 1.375 67.75 C1.375 68.41 1.375 69.07 1.375 69.75 C2.096875 69.399375 2.81875 69.04875 3.5625 68.6875 C6.6872705 67.64590983 8.25661996 67.85903428 11.375 68.75 C10.19921875 70.26953125 10.19921875 70.26953125 8.375 71.75 C5.89453125 71.82421875 5.89453125 71.82421875 3.1875 71.4375 C2.28644531 71.31761719 1.38539062 71.19773437 0.45703125 71.07421875 C-0.57357422 70.91373047 -0.57357422 70.91373047 -1.625 70.75 C-1.625 70.42 -1.625 70.09 -1.625 69.75 C-2.58599609 69.56824219 -2.58599609 69.56824219 -3.56640625 69.3828125 C-8.67428933 68.39320773 -13.64750269 67.26489049 -18.625 65.75 C-18.625 65.09 -18.625 64.43 -18.625 63.75 C-19.285 63.75 -19.945 63.75 -20.625 63.75 C-25.22186074 59.89857614 -28.29743696 55.27796223 -30.625 49.75 C-30.9375 46.1875 -30.9375 46.1875 -30.625 43.75 C-31.285 43.75 -31.945 43.75 -32.625 43.75 C-32.955 44.41 -33.285 45.07 -33.625 45.75 C-33.5528125 44.82058594 -33.480625 43.89117187 -33.40625 42.93359375 C-33.26703125 41.07927734 -33.26703125 41.07927734 -33.125 39.1875 C-33.0321875 37.96933594 -32.939375 36.75117187 -32.84375 35.49609375 C-32.56948918 31.76903609 -32.56948918 31.76903609 -32.7421875 28.109375 C-32.61763479 24.53886394 -31.95482399 22.66173206 -30.25 19.5625 C-29.80914062 18.74394531 -29.36828125 17.92539062 -28.9140625 17.08203125 C-28.48867188 16.31246094 -28.06328125 15.54289063 -27.625 14.75 C-27.2846875 14.0178125 -26.944375 13.285625 -26.59375 12.53125 C-25.1914035 9.95274192 -23.15621349 9.23571226 -20.625 7.75 C-19.83947754 6.92350952 -19.83947754 6.92350952 -19.03808594 6.08032227 C-13.21049369 -0.02255824 -8.16847308 -0.26844747 0 0 Z " fill="#1F2F67" transform="translate(36.625,-0.75)"/>
<path d="M0 0 C-3.26545761 1.88391785 -6.28111761 2.49287967 -10 3 C-10.33 4.32 -10.66 5.64 -11 7 C-10.15179687 6.83628906 -9.30359375 6.67257813 -8.4296875 6.50390625 C-4.9354469 5.99051555 -1.65372426 5.90149261 1.875 5.9375 C3.02742188 5.94652344 4.17984375 5.95554687 5.3671875 5.96484375 C6.23601563 5.97644531 7.10484375 5.98804688 8 6 C7.34 5.01 6.68 4.02 6 3 C8.64 3.33 11.28 3.66 14 4 C14 3.34 14 2.68 14 2 C14.66 2 15.32 2 16 2 C16.36923077 7.53846154 16.36923077 7.53846154 14.5 9.875 C14.005 10.24625 13.51 10.6175 13 11 C15.64 11 18.28 11 21 11 C19 13 19 13 16.38623047 13.22705078 C15.30744629 13.21657715 14.22866211 13.20610352 13.1171875 13.1953125 C11.95058594 13.18886719 10.78398438 13.18242188 9.58203125 13.17578125 C8.35871094 13.15902344 7.13539062 13.14226563 5.875 13.125 C4.64394531 13.11597656 3.41289063 13.10695313 2.14453125 13.09765625 C-0.90383815 13.07402548 -3.95182382 13.04108054 -7 13 C-7 16.3 -7 19.6 -7 23 C-1.39 23 4.22 23 10 23 C10 25.31 10 27.62 10 30 C5.73405886 33.60235029 1.96671661 35.14195456 -3.5625 35.1875 C-4.34753906 35.20167969 -5.13257813 35.21585938 -5.94140625 35.23046875 C-8 35 -8 35 -10 33 C-10.804375 32.2575 -11.60875 31.515 -12.4375 30.75 C-17.44720935 25.37372656 -18.56135469 20.89741421 -18.35546875 13.69140625 C-17.70403363 8.75911173 -15.64764835 5.54467032 -12 2.125 C-8.01241463 -0.11801677 -4.53365676 -0.10303765 0 0 Z " fill="#3CC1EE" transform="translate(42,20)"/>
<path d="M0 0 C8.91 0 17.82 0 27 0 C27.103125 3.196875 27.20625 6.39375 27.3125 9.6875 C27.38078003 11.18543091 27.38078003 11.18543091 27.45043945 12.71362305 C27.52215616 17.3058056 27.50452083 19.34495001 24.6171875 23.09375 C19.29560589 26.96976765 13.3411461 26.11081615 7 26 C7 25.34 7 24.68 7 24 C7.67546875 23.73445313 8.3509375 23.46890625 9.046875 23.1953125 C9.93890625 22.84210937 10.8309375 22.48890625 11.75 22.125 C12.63171875 21.77695312 13.5134375 21.42890625 14.421875 21.0703125 C16.6740248 20.1353291 18.83649459 19.12219206 21 18 C20.01 17.67 19.02 17.34 18 17 C17.67 15.02 17.34 13.04 17 11 C11.39 10.67 5.78 10.34 0 10 C0 6.7 0 3.4 0 0 Z " fill="#111B5C" transform="translate(35,33)"/>
<path d="M0 0 C0.99 0.33 1.98 0.66 3 1 C4.39690314 0.96969244 5.79325453 0.90380457 7.1875 0.8125 C12.38049213 0.71885588 15.5569857 2.4149735 20 5 C20 4.34 20 3.68 20 3 C20.66 3 21.32 3 22 3 C22.33 2.34 22.66 1.68 23 1 C23.99 1 24.98 1 26 1 C26 2.98 26 4.96 26 7 C24.68 7 23.36 7 22 7 C19.79932579 7.93283296 19.79932579 7.93283296 18 9 C17.401875 8.525625 16.80375 8.05125 16.1875 7.5625 C11.33403276 4.09573769 5.72949057 4.31996497 0 5 C-4.60254585 6.6743356 -7.29407366 8.9411105 -10 13 C-11.80524952 18.45161444 -11.89275587 24.37422094 -11 30 C-9.41916408 32.91311272 -7.50551026 34.86635379 -5 37 C-3.99423646 37.99420304 -2.99252088 38.9925764 -2 40 C-4.92879371 39.37240135 -7.36095629 38.41377341 -10 37 C-9.67 37.66 -9.34 38.32 -9 39 C-11.3125 39.3125 -11.3125 39.3125 -14 39 C-15.8125 36.5 -15.8125 36.5 -17 34 C-16.01 33.505 -16.01 33.505 -15 33 C-15.66 32.01 -16.32 31.02 -17 30 C-17 28.68 -17 27.36 -17 26 C-17.66 26 -18.32 26 -19 26 C-19.31369549 16.74598317 -19.31369549 16.74598317 -17 13 C-15.3364521 12.32558869 -13.66933058 11.6599679 -12 11 C-10.77634975 9.5509405 -9.55553542 8.09825121 -8.390625 6.6015625 C-5.9304775 3.76824655 -3.20027192 1.95572173 0 0 Z " fill="#111E63" transform="translate(33,14)"/>
<path d="M0 0 C0.99 0.33 1.98 0.66 3 1 C8.96996211 2.74916087 14.81045001 4.31227222 21 5 C21.495 6.98 21.495 6.98 22 9 C22.99 9 23.98 9 25 9 C26.21693876 11.43387753 26.31959896 13.41838846 26.5625 16.125 C26.64628906 17.03507812 26.73007813 17.94515625 26.81640625 18.8828125 C26.87699219 19.58148437 26.93757813 20.28015625 27 21 C29.475 21.99 29.475 21.99 32 23 C32.08847317 26.45816686 32.14087725 29.91603579 32.1875 33.375 C32.21263672 34.34050781 32.23777344 35.30601563 32.26367188 36.30078125 C32.33150605 43.03897584 31.31140022 48.6712281 29 55 C29.99 55.495 29.99 55.495 31 56 C27.93882432 58.62386487 27.26826873 59 23 59 C23.57344937 56.13275314 23.8614515 55.1385485 26 53 C26.33808612 50.64226522 26.33808612 50.64226522 26.34375 47.9140625 C26.38822266 46.39425781 26.38822266 46.39425781 26.43359375 44.84375 C26.45550781 43.7815625 26.47742188 42.719375 26.5 41.625 C26.54346311 39.53365724 26.59522108 37.44246638 26.65625 35.3515625 C26.67494141 34.42166504 26.69363281 33.49176758 26.71289062 32.53369141 C27.00904405 29.92018778 27.67699854 28.25187524 29 26 C28.34 26 27.68 26 27 26 C27 25.34 27 24.68 27 24 C25.68 23.67 24.36 23.34 23 23 C22.89042969 22.16855469 22.78085937 21.33710938 22.66796875 20.48046875 C22.50941406 19.39378906 22.35085937 18.30710937 22.1875 17.1875 C22.03667969 16.10855469 21.88585938 15.02960937 21.73046875 13.91796875 C20.95349864 10.81424324 20.62100898 9.76240259 18 8 C10.17724564 5.39954951 1.06796627 3.31067791 -7 6 C-7 5.67 -7 5.34 -7 5 C-8.65 4.67 -10.3 4.34 -12 4 C-12 3.67 -12 3.34 -12 3 C-10.7625 2.87625 -9.525 2.7525 -8.25 2.625 C-5.06283052 2.24276451 -2.85238424 1.47901405 0 0 Z " fill="#293676" transform="translate(38,1)"/>
<path d="M0 0 C2.31 0 4.62 0 7 0 C7 0.33 7 0.66 7 1 C9.97 1.495 9.97 1.495 13 2 C12 4 12 4 9.7421875 4.859375 C8.79601562 5.15328125 7.84984375 5.4471875 6.875 5.75 C-0.24551781 8.26203741 -4.87628394 11.40173397 -8.375 18.1875 C-9.39885746 20.44443797 -10.21409672 22.64229016 -11 25 C-11.66 25 -12.32 25 -13 25 C-12.88482579 27.35500948 -12.75812022 29.70849073 -12.625 32.0625 C-12.55539063 33.37347656 -12.48578125 34.68445312 -12.4140625 36.03515625 C-11.79161848 41.99535132 -10.67145541 46.73319655 -6.875 51.4375 C-6.33617187 52.11683594 -5.79734375 52.79617187 -5.2421875 53.49609375 C-4.83226562 53.99238281 -4.42234375 54.48867188 -4 55 C-5.32 54.34 -6.64 53.68 -8 53 C-8 52.34 -8 51.68 -8 51 C-8.8971875 50.566875 -8.8971875 50.566875 -9.8125 50.125 C-14.78603269 47.56718319 -14.78603269 47.56718319 -15.984375 44.390625 C-16.23703125 43.35421875 -16.4896875 42.3178125 -16.75 41.25 C-17.14445312 39.71085937 -17.14445312 39.71085937 -17.546875 38.140625 C-18.13115528 34.09095823 -17.84144137 30.68288273 -16 27 C-15.7525 25.515 -15.7525 25.515 -15.5 24 C-15 21 -15 21 -14 19 C-13.34 19 -12.68 19 -12 19 C-11.89042969 18.40832031 -11.78085938 17.81664063 -11.66796875 17.20703125 C-10.75281262 12.64613118 -9.91149857 8.76068565 -7 5 C-6.34 5 -5.68 5 -5 5 C-5 4.34 -5 3.68 -5 3 C-3.35 2.67 -1.7 2.34 0 2 C0 1.34 0 0.68 0 0 Z " fill="#3D6FBC" transform="translate(25,5)"/>
<path d="M0 0 C0 0.66 0 1.32 0 2 C-0.73605469 1.97679687 -1.47210938 1.95359375 -2.23046875 1.9296875 C-3.69419922 1.90261719 -3.69419922 1.90261719 -5.1875 1.875 C-6.63189453 1.84019531 -6.63189453 1.84019531 -8.10546875 1.8046875 C-14.01250316 2.20327282 -17.14931802 4.61450108 -21 9 C-22.88882019 14.66646057 -22.72468122 20.78569626 -20.875 26.4375 C-18.64995259 29.47839813 -16.17672538 31.02337088 -13 33 C-13 33.66 -13 34.32 -13 35 C-6.69912991 35.52507251 -1.03206488 35.23617707 4 31 C5.13478935 27.87866256 5.13478935 27.87866256 5 25 C5.33 25 5.66 25 6 25 C6 26.98 6 28.96 6 31 C6.66 31 7.32 31 8 31 C8.495 29.515 8.495 29.515 9 28 C9 29.32 9 30.64 9 32 C3.63934476 36.92527207 -3.13780192 39.25908632 -10.3125 39 C-16.34271808 38.34741476 -20.35326973 35.75180444 -25 32 C-24.67 31.34 -24.34 30.68 -24 30 C-22.824375 30.99 -22.824375 30.99 -21.625 32 C-19.28487188 34.20201441 -19.28487188 34.20201441 -17 34 C-17.48210938 33.60167969 -17.96421875 33.20335937 -18.4609375 32.79296875 C-19.09257812 32.26316406 -19.72421875 31.73335937 -20.375 31.1875 C-21.00148438 30.66542969 -21.62796875 30.14335938 -22.2734375 29.60546875 C-24.79123095 27.26426262 -25.93170753 25.58048601 -26.3359375 22.14453125 C-26.48549037 9.38767116 -26.48549037 9.38767116 -22 4 C-15.85745534 -1.89684287 -7.93576799 -2.645256 0 0 Z " fill="#155AD6" transform="translate(47,19)"/>
<path d="M0 0 C0.66 0.33 1.32 0.66 2 1 C1.67 1.99 1.34 2.98 1 4 C0.34 4 -0.32 4 -1 4 C-1.77249145 9.40744018 -2.09752461 14.53862186 -2 20 C-2.66 19.01 -3.32 18.02 -4 17 C-3.855625 17.58007812 -3.71125 18.16015625 -3.5625 18.7578125 C-2.49110572 23.26659675 -1.76054064 27.33054247 -2 32 C-1.44828125 32.2371875 -0.8965625 32.474375 -0.328125 32.71875 C2.56774711 34.31245143 4.79512037 36.28917273 7.25 38.5 C8.14203125 39.2940625 9.0340625 40.088125 9.953125 40.90625 C12 43 12 43 12 45 C16.62 45.66 21.24 46.32 26 47 C26 47.66 26 48.32 26 49 C26.721875 48.649375 27.44375 48.29875 28.1875 47.9375 C31.3122705 46.89590983 32.88161996 47.10903428 36 48 C34.82421875 49.51953125 34.82421875 49.51953125 33 51 C30.51953125 51.07421875 30.51953125 51.07421875 27.8125 50.6875 C26.91144531 50.56761719 26.01039062 50.44773438 25.08203125 50.32421875 C24.39496094 50.21722656 23.70789062 50.11023438 23 50 C23 49.67 23 49.34 23 49 C22.03900391 48.81824219 22.03900391 48.81824219 21.05859375 48.6328125 C15.95071067 47.64320773 10.97749731 46.51489049 6 45 C6 44.34 6 43.68 6 43 C5.34 43 4.68 43 4 43 C-0.59686074 39.14857614 -3.67243696 34.52796223 -6 29 C-6.3125 25.4375 -6.3125 25.4375 -6 23 C-6.66 23 -7.32 23 -8 23 C-8.33 23.66 -8.66 24.32 -9 25 C-8.76054948 23.35805354 -8.52104021 21.71611563 -8.28125 20.07421875 C-8.09271592 18.6837799 -7.92625262 17.29018147 -7.78125 15.89453125 C-7.21110254 10.46794915 -5.97344251 7.46016376 -3 3 C-2.01 3 -1.02 3 0 3 C0 2.01 0 1.02 0 0 Z " fill="#233E8A" transform="translate(12,20)"/>
<path d="M0 0 C0.33 0 0.66 0 1 0 C1 6.93 1 13.86 1 21 C-6.59 21 -14.18 21 -22 21 C-18.40736209 17.40736209 -15.64372916 14.93726433 -11.5625 12.1875 C-7.14180423 9.0554281 -4.01748634 5.96847658 -1.0234375 1.46875 C-0.68570313 0.9840625 -0.34796875 0.499375 0 0 Z " fill="#101939" transform="translate(74,51)"/>
<path d="M0 0 C-3.26545761 1.88391785 -6.28111761 2.49287967 -10 3 C-10.33 4.32 -10.66 5.64 -11 7 C-10.15179687 6.83628906 -9.30359375 6.67257813 -8.4296875 6.50390625 C-4.9354469 5.99051555 -1.65372426 5.90149261 1.875 5.9375 C3.02742188 5.94652344 4.17984375 5.95554687 5.3671875 5.96484375 C6.23601563 5.97644531 7.10484375 5.98804688 8 6 C7.34 5.01 6.68 4.02 6 3 C8.64 3.33 11.28 3.66 14 4 C14 3.34 14 2.68 14 2 C14.66 2 15.32 2 16 2 C16.36253776 7.43806647 16.36253776 7.43806647 14.75 9.9375 C14.1725 10.288125 13.595 10.63875 13 11 C12.45859375 10.86078125 11.9171875 10.7215625 11.359375 10.578125 C8.0544827 9.76831695 4.89830528 9.82922394 1.5 9.8125 C-0.46453125 9.79123047 -0.46453125 9.79123047 -2.46875 9.76953125 C-6.60636341 9.96675254 -6.60636341 9.96675254 -10 12 C-10.5906964 14.35588367 -10.5906964 14.35588367 -10.5625 17 C-10.62890625 19.6875 -10.62890625 19.6875 -11 22 C-11.99 22.66 -12.98 23.32 -14 24 C-14.68124706 22.00491933 -15.34427209 20.00361307 -16 18 C-16.45375 16.865625 -16.9075 15.73125 -17.375 14.5625 C-18.11328304 10.35428665 -17.50792073 8.94557935 -15.2109375 5.5078125 C-10.9305094 0.17798912 -6.51477989 -0.14806318 0 0 Z " fill="#2B99E0" transform="translate(42,20)"/>
<path d="M0 0 C3.17024501 1.16227861 4.16800619 2.1811491 5.85546875 5.046875 C1.51372433 4.36724023 -2.74156644 3.48838715 -7.01953125 2.484375 C-8.17195313 2.21496094 -9.324375 1.94554687 -10.51171875 1.66796875 C-11.38054688 1.46300781 -12.249375 1.25804687 -13.14453125 1.046875 C-13.37527344 1.6346875 -13.60601562 2.2225 -13.84375 2.828125 C-15.47560873 5.61159575 -17.27236587 6.77588135 -19.95703125 8.546875 C-20.85421875 9.15273438 -21.75140625 9.75859375 -22.67578125 10.3828125 C-23.49046875 10.93195312 -24.30515625 11.48109375 -25.14453125 12.046875 C-28.781567 14.79485756 -31.9667637 17.77831409 -35.14453125 21.046875 C-35.80453125 20.716875 -36.46453125 20.386875 -37.14453125 20.046875 C-34.70181398 13.25344736 -30.71702715 6.89180389 -24.171875 3.51171875 C-21.5123665 2.55429569 -18.88808713 1.72267737 -16.14453125 1.046875 C-17.46453125 0.386875 -18.78453125 -0.273125 -20.14453125 -0.953125 C-14.13866673 -3.95605726 -6.18082508 -1.30427727 0 0 Z " fill="#4B4B9A" transform="translate(53.14453125,6.953125)"/>
<path d="M0 0 C8.25 0 16.5 0 25 0 C24.67 0.99 24.34 1.98 24 3 C23.77820215 4.89212737 23.59385985 6.78884472 23.4375 8.6875 C23.35371094 9.68136719 23.26992188 10.67523438 23.18359375 11.69921875 C23.09271484 12.83810547 23.09271484 12.83810547 23 14 C22.67 13.34 22.34 12.68 22 12 C21.01 12 20.02 12 19 12 C19 10.02 19 8.04 19 6 C13.06 6 7.12 6 1 6 C0.67 4.02 0.34 2.04 0 0 Z " fill="#2956A0" transform="translate(36,33)"/>
<path d="M0 0 C-0.33 0.78375 -0.66 1.5675 -1 2.375 C-2.27410171 6.99361869 -2.16923936 11.24249356 -2 16 C-1.34 16 -0.68 16 0 16 C1.3671875 17.609375 1.3671875 17.609375 2.875 19.75 C5.05731197 22.76672537 7.25356742 25.46483146 10 28 C7.07120629 27.37240135 4.63904371 26.41377341 2 25 C2.33 25.66 2.66 26.32 3 27 C0.6875 27.3125 0.6875 27.3125 -2 27 C-3.8125 24.5 -3.8125 24.5 -5 22 C-4.34 21.67 -3.68 21.34 -3 21 C-3.66 20.01 -4.32 19.02 -5 18 C-5 16.68 -5 15.36 -5 14 C-5.66 14 -6.32 14 -7 14 C-7.30497051 5.00336984 -7.30497051 5.00336984 -5 1 C-2 0 -2 0 0 0 Z " fill="#172F82" transform="translate(21,26)"/>
<path d="M0 0 C0.495 1.485 0.495 1.485 1 3 C0.525625 3.433125 0.05125 3.86625 -0.4375 4.3125 C-2.23686957 6.02309613 -2.23686957 6.02309613 -3 9 C-2.34 9.33 -1.68 9.66 -1 10 C-7.60562514 13.96337508 -13.29284875 16.01908984 -21 17 C-22.66934283 17.31966139 -24.3373217 17.64731066 -26 18 C-26 17.34 -26 16.68 -26 16 C-27.19625 16.04125 -28.3925 16.0825 -29.625 16.125 C-33.46177774 16.10462773 -36.49859236 15.70998978 -40 14 C-41.875 11.375 -41.875 11.375 -43 9 C-37.3539242 10.83825724 -37.3539242 10.83825724 -34.68359375 12.05859375 C-29.6316806 13.83080782 -24.28823298 13.19400618 -19 13 C-18.10667969 12.97035156 -17.21335937 12.94070312 -16.29296875 12.91015625 C-12.43180881 12.64762299 -10.58427696 12.49438819 -7.5625 9.9375 C-7.046875 9.298125 -6.53125 8.65875 -6 8 C-5.34 8 -4.68 8 -4 8 C-3.896875 7.4225 -3.79375 6.845 -3.6875 6.25 C-2.90207202 3.67950842 -1.69495803 2.06342716 0 0 Z " fill="#234FA6" transform="translate(64,51)"/>
<path d="M0 0 C5.61 0 11.22 0 17 0 C16.67 1.65 16.34 3.3 16 5 C10.24118353 8.63055821 4.646936 8.32453395 -2 8 C-2.33 6.35 -2.66 4.7 -3 3 C-0.03 3 2.94 3 6 3 C6 2.34 6 1.68 6 1 C4.02 1 2.04 1 0 1 C0 0.67 0 0.34 0 0 Z " fill="#25A2E3" transform="translate(35,43)"/>
<path d="M0 0 C1.69286133 -0.04253906 1.69286133 -0.04253906 3.41992188 -0.0859375 C12.70629239 -0.10780064 12.70629239 -0.10780064 16.48046875 3.03125 C17.20878906 3.8459375 17.93710937 4.660625 18.6875 5.5 C15.00498062 6.72750646 13.34147023 6.10943561 9.625 5.125 C8.56152344 4.84914063 7.49804688 4.57328125 6.40234375 4.2890625 C3.6875 3.5 3.6875 3.5 1.6875 2.5 C0.35357036 3.16547273 -0.97962899 3.83240949 -2.3125 4.5 C-4.32219068 4.91272842 -6.34531461 5.26320315 -8.375 5.5625 C-11.51073203 6.03150318 -14.3009366 6.49614553 -17.3125 7.5 C-13.54019067 -0.91515158 -8.50886791 -0.01923995 0 0 Z " fill="#1B2A5E" transform="translate(36.3125,-0.49999999999999994)"/>
<path d="M0 0 C5.00651551 0.43863731 9.31836896 1.67844164 13.5859375 4.4140625 C13.9159375 5.0740625 14.2459375 5.7340625 14.5859375 6.4140625 C11.88262277 5.95063712 9.51042892 5.3834995 6.9609375 4.3515625 C4.5464161 3.23047923 4.5464161 3.23047923 1.5859375 3.4140625 C4.2259375 4.4040625 6.8659375 5.3940625 9.5859375 6.4140625 C9.2559375 7.7340625 8.9259375 9.0540625 8.5859375 10.4140625 C7.8228125 10.0840625 7.0596875 9.7540625 6.2734375 9.4140625 C1.33419099 8.07460582 -3.32869359 8.25118592 -8.4140625 8.4140625 C-4.27999579 0.73410931 -4.27999579 0.73410931 0 0 Z " fill="#3D9EE4" transform="translate(42.4140625,7.5859375)"/>
<path d="M0 0 C2.93278073 2.93278073 2.86414653 6.02480947 3 10 C2.54962779 22.35111663 2.54962779 22.35111663 1 27 C1.66 27.33 2.32 27.66 3 28 C-0.06117568 30.62386487 -0.73173127 31 -5 31 C-4.42655063 28.13275314 -4.1385485 27.1385485 -2 25 C-1.64547557 22.60990683 -1.64547557 22.60990683 -1.62109375 19.84375 C-1.58693359 18.82152344 -1.55277344 17.79929687 -1.51757812 16.74609375 C-1.49115234 15.67488281 -1.46472656 14.60367188 -1.4375 13.5 C-1.37769801 11.38529976 -1.31408687 9.27070272 -1.24609375 7.15625 C-1.22216553 6.21587891 -1.1982373 5.27550781 -1.17358398 4.30664062 C-1 2 -1 2 0 0 Z " fill="#224799" transform="translate(66,29)"/>
<path d="M0 0 C0.66 0 1.32 0 2 0 C1.8125 1.8125 1.8125 1.8125 1 4 C-3.74248663 7.46073349 -7.85426592 8.14861365 -13.625 8.1875 C-15.06746094 8.20876953 -15.06746094 8.20876953 -16.5390625 8.23046875 C-19 8 -19 8 -21 6 C-23.31648799 4.96157435 -25.64903024 3.9578025 -28 3 C-28 2.67 -28 2.34 -28 2 C-26.35 2 -24.7 2 -23 2 C-23 2.66 -23 3.32 -23 4 C-18.05 4.33 -13.1 4.66 -8 5 C-8 4.34 -8 3.68 -8 3 C-10.97 2.67 -13.94 2.34 -17 2 C-17 1.67 -17 1.34 -17 1 C-15.85660156 1.01160156 -14.71320312 1.02320313 -13.53515625 1.03515625 C-12.04427246 1.04453288 -10.55338691 1.05363321 -9.0625 1.0625 C-8.30775391 1.07087891 -7.55300781 1.07925781 -6.77539062 1.08789062 C-4.85005687 1.09652441 -2.92464419 1.05224333 -1 1 C-0.67 0.67 -0.34 0.34 0 0 Z " fill="#10174C" transform="translate(53,57)"/>
<path d="M0 0 C-2.85856627 4.04963555 -6.0628555 6.64745275 -10.02734375 9.5078125 C-12.61692281 11.4666624 -14.77738716 13.63847386 -17 16 C-17.66 15.67 -18.32 15.34 -19 15 C-17.36996737 9.20432842 -13.15109096 4.00406807 -8.08984375 0.78515625 C-4.86085438 -0.70250977 -3.43458582 -1.14486194 0 0 Z " fill="#2362BE" transform="translate(35,12)"/>
<path d="M0 0 C0.66 0 1.32 0 2 0 C2 1.65 2 3.3 2 5 C2.66 5 3.32 5 4 5 C4.061875 5.78375 4.12375 6.5675 4.1875 7.375 C4.455625 8.24125 4.72375 9.1075 5 10 C7.50091962 11.19218842 7.50091962 11.19218842 10 12 C10.05787784 15.62493334 10.0935542 19.24974857 10.125 22.875 C10.14175781 23.90753906 10.15851563 24.94007812 10.17578125 26.00390625 C10.18222656 26.99003906 10.18867187 27.97617187 10.1953125 28.9921875 C10.20578613 29.90339355 10.21625977 30.81459961 10.22705078 31.75341797 C10 34 10 34 8 36 C8.01160156 35.32195313 8.02320312 34.64390625 8.03515625 33.9453125 C8.09708351 27.55795793 7.77018868 21.34030324 7 15 C6.34 15 5.68 15 5 15 C5 14.34 5 13.68 5 13 C3.68 12.67 2.36 12.34 1 12 C0.67 8.04 0.34 4.08 0 0 Z " fill="#21397E" transform="translate(60,12)"/>
<path d="M0 0 C0.33 0 0.66 0 1 0 C1 1.98 1 3.96 1 6 C1.66 6 2.32 6 3 6 C3.33 5.01 3.66 4.02 4 3 C4 4.32 4 5.64 4 7 C-1.36065524 11.92527207 -8.13780192 14.25908632 -15.3125 14 C-21.34271808 13.34741476 -25.35326973 10.75180444 -30 7 C-29.67 6.34 -29.34 5.68 -29 5 C-28.29875 5.639375 -27.5975 6.27875 -26.875 6.9375 C-23.62379366 9.26988716 -21.95585766 9.69570326 -18 10 C-17.30648437 10.06316406 -16.61296875 10.12632813 -15.8984375 10.19140625 C-10.30487291 10.48934526 -5.39973318 9.70385701 -1 6 C0.13478935 2.87866256 0.13478935 2.87866256 0 0 Z " fill="#3568B9" transform="translate(52,44)"/>
<path d="M0 0 C0.66 0 1.32 0 2 0 C1.54177532 3.46941546 1.10868317 6.67395049 0 10 C0.66 10.33 1.32 10.66 2 11 C2.76154881 26.06174316 2.76154881 26.06174316 -2 33 C-3.485 33.495 -3.485 33.495 -5 34 C-4.69078116 32.54096742 -4.37751201 31.08279278 -4.0625 29.625 C-3.88847656 28.81289063 -3.71445313 28.00078125 -3.53515625 27.1640625 C-3 25 -3 25 -2 23 C-1.85994597 21.43052851 -1.77444 19.85597363 -1.71875 18.28125 C-1.66267578 16.88326172 -1.66267578 16.88326172 -1.60546875 15.45703125 C-1.57066406 14.48121094 -1.53585938 13.50539063 -1.5 12.5 C-1.43126104 10.57276313 -1.35853973 8.6456629 -1.28125 6.71875 C-1.25095703 5.86216797 -1.22066406 5.00558594 -1.18945312 4.12304688 C-1 2 -1 2 0 0 Z " fill="#192A5E" transform="translate(71,23)"/>
<path d="M0 0 C0.99 0.33 1.98 0.66 3 1 C3.66 1 4.32 1 5 1 C7 1 9 1 11 1 C10 3 10 3 7.7421875 3.859375 C6.79601562 4.15328125 5.84984375 4.4471875 4.875 4.75 C-0.4886102 6.60984925 -4.05476712 8.97972193 -8 13 C-8.556875 13.55558594 -9.11375 14.11117188 -9.6875 14.68359375 C-10.120625 15.11800781 -10.55375 15.55242188 -11 16 C-11.28333992 12.94206733 -11.26766276 11.41359396 -9.57421875 8.796875 C-8.95160156 8.12140625 -8.32898438 7.4459375 -7.6875 6.75 C-7.07261719 6.06421875 -6.45773438 5.3784375 -5.82421875 4.671875 C-4 3 -4 3 -1 2 C-0.67 1.34 -0.34 0.68 0 0 Z " fill="#C0C5E3" transform="translate(27,6)"/>
<path d="M0 0 C6.88490225 -0.57374185 11.02667877 0.5246131 17 4 C17 3.34 17 2.68 17 2 C17.66 2 18.32 2 19 2 C19.33 1.34 19.66 0.68 20 0 C20.99 0 21.98 0 23 0 C23 1.98 23 3.96 23 6 C21.68 6 20.36 6 19 6 C16.79932579 6.93283296 16.79932579 6.93283296 15 8 C14.46890625 7.52949219 13.9378125 7.05898438 13.390625 6.57421875 C10.48343358 4.6598427 8.18260923 4.29754261 4.75 3.8125 C3.67234375 3.65394531 2.5946875 3.49539062 1.484375 3.33203125 C0.66453125 3.22246094 -0.1553125 3.11289062 -1 3 C-0.67 2.01 -0.34 1.02 0 0 Z " fill="#0F2278" transform="translate(36,15)"/>
<path d="M0 0 C1.3303125 0.7115625 1.3303125 0.7115625 2.6875 1.4375 C5.57042756 2.79737149 7.87610623 3.54060386 11 4 C11 4.66 11 5.32 11 6 C13.97 6.33 16.94 6.66 20 7 C20 7.66 20 8.32 20 9 C18.25008666 9.02715383 16.50005055 9.04646551 14.75 9.0625 C13.28820312 9.07990234 13.28820312 9.07990234 11.796875 9.09765625 C9.34241322 9.01195577 7.33831086 8.70706066 5 8 C5 7.34 5 6.68 5 6 C3.35 6 1.7 6 0 6 C0 4.02 0 2.04 0 0 Z " fill="#151D62" transform="translate(25,53)"/>
<path d="M0 0 C4.86570185 -0.37428476 8.3997407 0.68410817 12.8515625 2.44140625 C15.29486248 3.07666425 16.63914647 2.80653593 19 2 C19.96070434 4.88211302 20.10581883 6.69850044 20.0625 9.6875 C20.05347656 10.49574219 20.04445313 11.30398437 20.03515625 12.13671875 C20.02355469 12.75160156 20.01195313 13.36648437 20 14 C21.32 14.33 22.64 14.66 24 15 C23.67 15.66 23.34 16.32 23 17 C21.35 16.34 19.7 15.68 18 15 C17.67 12.03 17.34 9.06 17 6 C15.35 6.33 13.7 6.66 12 7 C12 7.66 12 8.32 12 9 C11.01 8.67 10.02 8.34 9 8 C9.33 6.68 9.66 5.36 10 4 C6.7 3.01 3.4 2.02 0 1 C0 0.67 0 0.34 0 0 Z " fill="#3766B0" transform="translate(41,10)"/>
<path d="M0 0 C0.99 0.495 0.99 0.495 2 1 C2 2.65 2 4.3 2 6 C3.98 6 5.96 6 8 6 C8 6.33 8 6.66 8 7 C11.63 7.33 15.26 7.66 19 8 C19 10.97 19 13.94 19 17 C18.67 17 18.34 17 18 17 C17.67 15.02 17.34 13.04 17 11 C11.39 10.67 5.78 10.34 0 10 C0 6.7 0 3.4 0 0 Z " fill="#10267F" transform="translate(35,33)"/>
<path d="M0 0 C0.33 0.66 0.66 1.32 1 2 C1.99 1.67 2.98 1.34 4 1 C3.67 2.65 3.34 4.3 3 6 C4.98 6.66 6.96 7.32 9 8 C8.01 8.33 7.02 8.66 6 9 C5.34 8.67 4.68 8.34 4 8 C4.99 9.32 5.98 10.64 7 12 C4.36 12 1.72 12 -1 12 C-0.67 11.01 -0.34 10.02 0 9 C0.66 9 1.32 9 2 9 C2 7.02 2 5.04 2 3 C1.34 3 0.68 3 0 3 C0 3.66 0 4.32 0 5 C-1.625 5.6875 -1.625 5.6875 -4 6 C-7.25 4.5625 -7.25 4.5625 -10 3 C-9.67 2.34 -9.34 1.68 -9 1 C-7.02 1.66 -5.04 2.32 -3 3 C-2.01 2.01 -1.02 1.02 0 0 Z " fill="#288BE0" transform="translate(56,19)"/>
<path d="M0 0 C2.31 0 4.62 0 7 0 C7 0.99 7 1.98 7 3 C5.68 3.33 4.36 3.66 3 4 C3.33 3.34 3.66 2.68 4 2 C3.34 1.67 2.68 1.34 2 1 C1.67 1.99 1.34 2.98 1 4 C0.01 4.33 -0.98 4.66 -2 5 C-5.69871603 8.42269244 -8.68444225 11.79329712 -9 17 C-9.66 17 -10.32 17 -11 17 C-11.33 17.66 -11.66 18.32 -12 19 C-10.1643002 9.0872211 -10.1643002 9.0872211 -7 5 C-6.34 5 -5.68 5 -5 5 C-5 4.34 -5 3.68 -5 3 C-3.35 2.67 -1.7 2.34 0 2 C0 1.34 0 0.68 0 0 Z " fill="#4A58A2" transform="translate(25,5)"/>
<path d="M0 0 C0.33 0.66 0.66 1.32 1 2 C1.66 2 2.32 2 3 2 C3.09796875 2.73605469 3.1959375 3.47210938 3.296875 4.23046875 C4.37107947 11.24057898 5.59003132 15.25308079 11.25 19.8125 C11.8275 20.204375 12.405 20.59625 13 21 C8.56630711 21 6.19798155 19.7104126 3.125 16.6875 C-0.66872495 12.11001649 -0.59550032 8.10539302 -0.24609375 2.34375 C-0.16488281 1.5703125 -0.08367188 0.796875 0 0 Z " fill="#1F7AE3" transform="translate(21,32)"/>
<path d="M0 0 C5.36136662 1.74244415 5.36136662 1.74244415 7.8984375 2.765625 C12.64369735 4.67873371 16.89937397 5.54458696 22 6 C22 6.66 22 7.32 22 8 C22.721875 7.649375 23.44375 7.29875 24.1875 6.9375 C27.3122705 5.89590983 28.88161996 6.10903428 32 7 C30.82421875 8.51953125 30.82421875 8.51953125 29 10 C26.51953125 10.07421875 26.51953125 10.07421875 23.8125 9.6875 C22.91144531 9.56761719 22.01039062 9.44773437 21.08203125 9.32421875 C20.39496094 9.21722656 19.70789063 9.11023438 19 9 C19 8.67 19 8.34 19 8 C18.35933594 7.87882812 17.71867187 7.75765625 17.05859375 7.6328125 C11.95071067 6.64320773 6.97749731 5.51489049 2 4 C2 3.34 2 2.68 2 2 C1.34 2 0.68 2 0 2 C0 1.34 0 0.68 0 0 Z " fill="#1C306E" transform="translate(16,61)"/>
<path d="M0 0 C-0.66 0 -1.32 0 -2 0 C-2 0.66 -2 1.32 -2 2 C-7.61 2 -13.22 2 -19 2 C-19 1.01 -19 0.02 -19 -1 C-16.58388467 -1.22237877 -14.1682283 -1.42832339 -11.75 -1.625 C-11.06808594 -1.68945312 -10.38617188 -1.75390625 -9.68359375 -1.8203125 C-5.8772951 -2.11594735 -3.22190154 -2.17561392 0 0 Z " fill="#1D419D" transform="translate(56,37)"/>
<path d="M0 0 C1.87056791 0.2275015 3.74685958 0.40962811 5.625 0.5625 C6.62789062 0.64628906 7.63078125 0.73007812 8.6640625 0.81640625 C9.43492188 0.87699219 10.20578125 0.93757813 11 1 C9 3 9 3 6.47802734 3.22705078 C5.4411377 3.21657715 4.40424805 3.20610352 3.3359375 3.1953125 C2.21445312 3.18886719 1.09296875 3.18242188 -0.0625 3.17578125 C-1.238125 3.15902344 -2.41375 3.14226563 -3.625 3.125 C-5.40003906 3.11146484 -5.40003906 3.11146484 -7.2109375 3.09765625 C-10.14082523 3.07402812 -13.0703134 3.04108514 -16 3 C-16 2.67 -16 2.34 -16 2 C-13.71022755 1.47090114 -11.41810812 0.95194981 -9.125 0.4375 C-7.84882812 0.14746094 -6.57265625 -0.14257812 -5.2578125 -0.44140625 C-2 -1 -2 -1 0 0 Z " fill="#6FD9F2" transform="translate(52,30)"/>
<path d="M0 0 C0.66 0.33 1.32 0.66 2 1 C1.67 1.99 1.34 2.98 1 4 C0.34 4 -0.32 4 -1 4 C-1.77249145 9.40744018 -2.09752461 14.53862186 -2 20 C-5.45366427 17.33125942 -6.19350685 14.17910087 -7 10 C-6.25 7.75 -6.25 7.75 -5 6 C-4.34 5.01 -3.68 4.02 -3 3 C-2.01 3 -1.02 3 0 3 C0 2.01 0 1.02 0 0 Z " fill="#273B84" transform="translate(12,20)"/>
<path d="M0 0 C2.45862401 -0.05383848 4.9160755 -0.09359038 7.375 -0.125 C8.42300781 -0.15013672 8.42300781 -0.15013672 9.4921875 -0.17578125 C11.32897486 -0.19344267 13.16601963 -0.10303261 15 0 C15.66 0.66 16.32 1.32 17 2 C16 3 16 3 12.62109375 3.09765625 C11.22652923 3.09098369 9.83198257 3.07902532 8.4375 3.0625 C7.72658203 3.05798828 7.01566406 3.05347656 6.28320312 3.04882812 C4.52209987 3.03700864 2.76103964 3.01907263 1 3 C0.67 2.01 0.34 1.02 0 0 Z " fill="#4569A5" transform="translate(36,33)"/>
<path d="M0 0 C-0.309375 0.825 -0.61875 1.65 -0.9375 2.5 C-2.11877583 6.39126155 -2.58224168 9.96166953 -3 14 C-5.0625 11.9375 -5.0625 11.9375 -7 9 C-7 5.3125 -7 5.3125 -6 2 C-3.83076342 0.3905664 -2.68076871 0 0 0 Z " fill="#1D419C" transform="translate(21,26)"/>
<path d="M0 0 C5.26577087 3.30641427 9.50265396 6.75398094 13 12 C11.5410574 11.52269162 10.08286504 11.04308958 8.625 10.5625 C7.81289063 10.29566406 7.00078125 10.02882813 6.1640625 9.75390625 C2.24015248 8.38691233 2.24015248 8.38691233 0.875 6.1875 C0 4 0 4 0 0 Z " fill="#20408D" transform="translate(11,52)"/>
<path d="M0 0 C0.33 0.99 0.66 1.98 1 3 C0.26394531 3.04898437 -0.47210938 3.09796875 -1.23046875 3.1484375 C-2.69419922 3.26058594 -2.69419922 3.26058594 -4.1875 3.375 C-5.15042969 3.44460937 -6.11335938 3.51421875 -7.10546875 3.5859375 C-10.01508938 4.00215853 -12.32890774 4.79874096 -15 6 C-14.875 4.125 -14.875 4.125 -14 2 C-9.32069904 -0.28258584 -5.08174565 -0.17523261 0 0 Z " fill="#2C74C3" transform="translate(46,21)"/>
<path d="M0 0 C0.66 0 1.32 0 2 0 C2.36253776 5.43806647 2.36253776 5.43806647 0.75 7.9375 C-1 9 -1 9 -3.1875 8.6875 C-3.785625 8.460625 -4.38375 8.23375 -5 8 C-4.34 6.68 -3.68 5.36 -3 4 C-3.639375 3.87625 -4.27875 3.7525 -4.9375 3.625 C-5.618125 3.41875 -6.29875 3.2125 -7 3 C-7.33 2.34 -7.66 1.68 -8 1 C-5.36 1.33 -2.72 1.66 0 2 C0 1.34 0 0.68 0 0 Z " fill="#3AC3EF" transform="translate(56,22)"/>
<path d="M0 0 C5.72177419 1.86290323 5.72177419 1.86290323 8.15625 3.0625 C12.08368628 4.35725921 15.70912069 4.21442822 19.8125 4.125 C20.60076172 4.11597656 21.38902344 4.10695313 22.20117188 4.09765625 C24.13424666 4.07422504 26.0671638 4.03835838 28 4 C27.67 4.66 27.34 5.32 27 6 C8.47590001 6.56835307 8.47590001 6.56835307 2 3 C1.34 2.01 0.68 1.02 0 0 Z " fill="#347CC9" transform="translate(21,60)"/>
<path d="M0 0 C-4.47543578 2.48867691 -8.99434733 3.07790609 -14 4 C-14.33 7.3 -14.66 10.6 -15 14 C-15.33 14 -15.66 14 -16 14 C-16 10.04 -16 6.08 -16 2 C-10.60539047 -0.27141454 -5.73842251 -0.20413361 0 0 Z " fill="#3AB4E1" transform="translate(50,29)"/>
<path d="M0 0 C5.92478912 0.33956301 10.87221522 0.71295848 16 4 C16.33 4.66 16.66 5.32 17 6 C14.32599748 5.54159957 12.08729716 5.04135129 9.625 3.875 C6.1536643 2.7178881 3.54423585 3.30505179 0 4 C0 2.68 0 1.36 0 0 Z " fill="#7AC9E8" transform="translate(40,8)"/>
<path d="M0 0 C0.33 0.66 0.66 1.32 1 2 C0.0390625 4.05859375 0.0390625 4.05859375 -1.375 6.4375 C-2.88862226 9.00389306 -4.05327677 11.1598303 -5 14 C-5.66 14 -6.32 14 -7 14 C-8 11 -8 11 -7.36328125 9.0625 C-3.8740458 2.21374046 -3.8740458 2.21374046 0 0 Z " fill="#1446B9" transform="translate(29,20)"/>
<path d="M0 0 C0.53625 0.639375 1.0725 1.27875 1.625 1.9375 C4.44367193 4.38529404 6.33860732 4.66714612 10 5 C10 6.98 10 8.96 10 11 C7.00779732 9.63629701 4.70973471 8.05091917 2.25 5.875 C1.63640625 5.33617187 1.0228125 4.79734375 0.390625 4.2421875 C-0.06828125 3.83226562 -0.5271875 3.42234375 -1 3 C-0.67 2.01 -0.34 1.02 0 0 Z " fill="#0F154E" transform="translate(15,48)"/>
<path d="M0 0 C-3.26545761 1.88391785 -6.28111761 2.49287967 -10 3 C-9.938125 3.763125 -9.87625 4.52625 -9.8125 5.3125 C-10 8 -10 8 -11.375 9.8125 C-13 11 -13 11 -15 11 C-13.85781803 7.13415332 -12.8281145 3.93688813 -10 1 C-6.76668144 -0.33792492 -3.4585341 -0.07860305 0 0 Z " fill="#3385D6" transform="translate(42,20)"/>
<path d="M0 0 C0.93423645 3.01031744 1.04449911 3.86650268 0 7 C0.66 7.33 1.32 7.66 2 8 C-1.06117568 10.62386487 -1.73173127 11 -6 11 C-5.45156876 7.16098132 -3.7234735 5.63836495 -1 3 C-0.67 2.01 -0.34 1.02 0 0 Z " fill="#21387A" transform="translate(67,49)"/>
<path d="M0 0 C-1.98 0.66 -3.96 1.32 -6 2 C-6.02578125 2.69867188 -6.0515625 3.39734375 -6.078125 4.1171875 C-6.13484375 5.02726562 -6.1915625 5.93734375 -6.25 6.875 C-6.29640625 7.77992187 -6.3428125 8.68484375 -6.390625 9.6171875 C-7 12 -7 12 -9.046875 13.3203125 C-9.69140625 13.54460938 -10.3359375 13.76890625 -11 14 C-10.855625 13.319375 -10.71125 12.63875 -10.5625 11.9375 C-9.92039947 8.90250246 -9.92039947 8.90250246 -9.75 5.375 C-9 2 -9 2 -6.6875 0 C-3.8414215 -1.05900595 -2.76351601 -1.12587689 0 0 Z " fill="#26AEEA" transform="translate(40,30)"/>
<path d="M0 0 C-1.04874998 2.62187494 -1.64931313 3.79371361 -4.125 5.25 C-4.74375 5.4975 -5.3625 5.745 -6 6 C-6 5.34 -6 4.68 -6 4 C-8.97 4.66 -11.94 5.32 -15 6 C-12.15163299 3.15163299 -11.13102212 2.45627197 -7.5 1.3125 C-6.7265625 1.06113281 -5.953125 0.80976563 -5.15625 0.55078125 C-3 0 -3 0 0 0 Z " fill="#513F79" transform="translate(40,8)"/>
<path d="M0 0 C1.3303125 0.7115625 1.3303125 0.7115625 2.6875 1.4375 C5.57042756 2.79737149 7.87610623 3.54060386 11 4 C11 4.66 11 5.32 11 6 C13.64 6.33 16.28 6.66 19 7 C14.88779344 8.54207746 11.22170714 7.74901256 7 7 C6.34 6.34 5.68 5.68 5 5 C2.41645782 4.83312552 2.41645782 4.83312552 0 5 C0 3.35 0 1.7 0 0 Z " fill="#1E2D79" transform="translate(25,53)"/>
<path d="M0 0 C-1.0625 1.9375 -1.0625 1.9375 -3 4 C-6.4163394 4.73207273 -9.5124487 5 -13 5 C-5.16 -1.72 -5.16 -1.72 0 0 Z " fill="#689EDD" transform="translate(35,12)"/>
<path d="M0 0 C0 3 0 3 -1 6 C-6.00568828 10.89192264 -6.00568828 10.89192264 -9.875 11.3125 C-10.926875 11.1578125 -10.926875 11.1578125 -12 11 C-11.278125 10.443125 -10.55625 9.88625 -9.8125 9.3125 C-7.02282044 7.01876348 -4.51793656 4.5859889 -2 2 C-1.34 1.34 -0.68 0.68 0 0 Z " fill="#31A2DC" transform="translate(61,53)"/>
<path d="M0 0 C1.32 0.33 2.64 0.66 4 1 C4 1.99 4 2.98 4 4 C4.99 4 5.98 4 7 4 C7.33 6.31 7.66 8.62 8 11 C7.34 11 6.68 11 6 11 C6 9.35 6 7.7 6 6 C5.38125 5.87625 4.7625 5.7525 4.125 5.625 C2 5 2 5 0 3 C0 2.01 0 1.02 0 0 Z " fill="#1D2E67" transform="translate(56,6)"/>
<path d="M0 0 C0 3.3 0 6.6 0 10 C-0.33 9.34 -0.66 8.68 -1 8 C-1.99 8 -2.98 8 -4 8 C-4.1875 5.125 -4.1875 5.125 -4 2 C-1 0 -1 0 0 0 Z " fill="#1D3995" transform="translate(59,37)"/>
<path d="M0 0 C0.99 0.33 1.98 0.66 3 1 C2.67 4.63 2.34 8.26 2 12 C1.34 12 0.68 12 0 12 C-0.19477739 10.37585622 -0.38059458 8.75063577 -0.5625 7.125 C-0.66691406 6.22007813 -0.77132813 5.31515625 -0.87890625 4.3828125 C-1 2 -1 2 0 0 Z " fill="#10246D" transform="translate(19,30)"/>
<path d="M0 0 C0.66 0.33 1.32 0.66 2 1 C1.34 1.66 0.68 2.32 0 3 C-0.99 2.67 -1.98 2.34 -3 2 C-2.01 1.34 -1.02 0.68 0 0 Z M-3 4 C-4.0625 5.5 -4.0625 5.5 -6 7 C-9.6875 7.1875 -9.6875 7.1875 -13 7 C-10.30922307 3.74274372 -7.0224365 1.98878175 -3 4 Z " fill="#1B2B64" transform="translate(61,61)"/>
<path d="M0 0 C2.91308822 1.45654411 3.05452316 3.35387648 4.125 6.375 C4.47820313 7.35210937 4.83140625 8.32921875 5.1953125 9.3359375 C6 12 6 12 6 15 C1.80477672 9.83664827 0.34978143 6.64584719 0 0 Z " fill="#1C306E" transform="translate(6,44)"/>
<path d="M0 0 C0.33 0 0.66 0 1 0 C1.33 3.63 1.66 7.26 2 11 C4.97 11.495 4.97 11.495 8 12 C8 12.33 8 12.66 8 13 C4.37 13.33 0.74 13.66 -3 14 C-2.34 12.68 -1.68 11.36 -1 10 C-0.54935368 7.41467299 -0.54935368 7.41467299 -0.375 4.75 C-0.30023438 3.85796875 -0.22546875 2.9659375 -0.1484375 2.046875 C-0.09945312 1.37140625 -0.05046875 0.6959375 0 0 Z " fill="#26C6F4" transform="translate(33,32)"/>
<path d="M0 0 C0.33 0 0.66 0 1 0 C1 1.98 1 3.96 1 6 C1.66 6 2.32 6 3 6 C3.33 5.01 3.66 4.02 4 3 C4 4.32 4 5.64 4 7 C1 9.25 1 9.25 -2 11 C-2.66 10.67 -3.32 10.34 -4 10 C-4 9.34 -4 8.68 -4 8 C-3.01 7.34 -2.02 6.68 -1 6 C-0.26656572 2.93443402 -0.26656572 2.93443402 0 0 Z " fill="#2E6AB7" transform="translate(52,44)"/>
<path d="M0 0 C2.875 -0.1875 2.875 -0.1875 6 0 C8 3 8 3 8 6 C4.08597051 4.73058503 2.20927127 3.48832306 0 0 Z " fill="#162451" transform="translate(49,0)"/>
<path d="M0 0 C0.99 0.66 1.98 1.32 3 2 C-0.00836106 4.00557404 -2.57148844 4.92859014 -6 6 C-6.99 6.33 -7.98 6.66 -9 7 C-7.91801129 3.51359193 -6.86630682 2.92707645 -3.5625 1.125 C-2.386875 0.75375 -1.21125 0.3825 0 0 Z " fill="#3188D9" transform="translate(28,15)"/>
<path d="M0 0 C3.63559661 3.43361902 6.36113346 6.7973607 9 11 C7.68 10.34 6.36 9.68 5 9 C5 8.34 5 7.68 5 7 C4.38125 6.731875 3.7625 6.46375 3.125 6.1875 C1 5 1 5 -1 2 C-0.67 1.34 -0.34 0.68 0 0 Z " fill="#3BA3DB" transform="translate(12,49)"/>
<path d="M0 0 C0 0.33 0 0.66 0 1 C-5.28 1 -10.56 1 -16 1 C-16 0.67 -16 0.34 -16 0 C-5.62642369 -2.66514806 -5.62642369 -2.66514806 0 0 Z " fill="#87F1F7" transform="translate(52,32)"/>
<path d="M0 0 C0.99 0.66 1.98 1.32 3 2 C2.02433888 3.16959987 1.044375 4.33561177 0.0625 5.5 C-0.48277344 6.1496875 -1.02804688 6.799375 -1.58984375 7.46875 C-2.05519531 7.9740625 -2.52054688 8.479375 -3 9 C-3.33 9 -3.66 9 -4 9 C-4.25 6.75 -4.25 6.75 -4 4 C-2 1.6875 -2 1.6875 0 0 Z " fill="#8089CF" transform="translate(20,13)"/>
<path d="M0 0 C2.97 0 5.94 0 9 0 C8.01 1.485 8.01 1.485 7 3 C3.375 3.1875 3.375 3.1875 0 3 C0 2.01 0 1.02 0 0 Z " fill="#1E4AAA" transform="translate(37,36)"/>
<path d="M0 0 C0.99 0 1.98 0 3 0 C3 2.83967231 2.59732819 5.23735711 2 8 C1.01 8 0.02 8 -1 8 C-1.04241723 5.66705225 -1.04092937 3.33297433 -1 1 C-0.67 0.67 -0.34 0.34 0 0 Z " fill="#273772" transform="translate(5,23)"/>
<path d="M0 0 C0.66 0 1.32 0 2 0 C2.33 1.32 2.66 2.64 3 4 C2.01 4.66 1.02 5.32 0 6 C-0.38218767 4.34385343 -0.71395102 2.67542976 -1 1 C-0.67 0.67 -0.34 0.34 0 0 Z M-2 6 C-1.34 6.33 -0.68 6.66 0 7 C-1.485 8.485 -1.485 8.485 -3 10 C-3.99 9.67 -4.98 9.34 -6 9 C-4.68 8.01 -3.36 7.02 -2 6 Z " fill="#1A2B7B" transform="translate(56,45)"/>
<path d="M0 0 C0.66 1.32 1.32 2.64 2 4 C2.66 4.66 3.32 5.32 4 6 C4.125 8.625 4.125 8.625 4 11 C2.68 10.34 1.36 9.68 0 9 C0 6.03 0 3.06 0 0 Z " fill="#33C1F0" transform="translate(24,33)"/>
<path d="M0 0 C-2.49505962 2.49505962 -3.67328888 2.35948376 -7.125 2.625 C-8.03507812 2.69976563 -8.94515625 2.77453125 -9.8828125 2.8515625 C-10.93082031 2.92503906 -10.93082031 2.92503906 -12 3 C-12 2.34 -12 1.68 -12 1 C-8.0186217 -0.3271261 -4.14954773 -0.06915913 0 0 Z " fill="#278FD9" transform="translate(45,26)"/>
<path d="M0 0 C2.97 0 5.94 0 9 0 C9 0.99 9 1.98 9 3 C5.7 3 2.4 3 -1 3 C-0.67 2.01 -0.34 1.02 0 0 Z " fill="#152D7F" transform="translate(36,15)"/>
<path d="M0 0 C2.475 0.99 2.475 0.99 5 2 C5 4.64 5 7.28 5 10 C1.55783328 7.3401439 1.00495326 4.09711714 0 0 Z " fill="#3155AB" transform="translate(5,30)"/>
<path d="M0 0 C2.1640625 -0.29296875 2.1640625 -0.29296875 4.625 -0.1875 C5.44226563 -0.16042969 6.25953125 -0.13335938 7.1015625 -0.10546875 C8.04128906 -0.05326172 8.04128906 -0.05326172 9 0 C8.67 0.66 8.34 1.32 8 2 C5.71484375 2.4140625 5.71484375 2.4140625 2.9375 2.625 C2.01839844 2.69976562 1.09929688 2.77453125 0.15234375 2.8515625 C-0.55792969 2.90054687 -1.26820312 2.94953125 -2 3 C-1.34 2.01 -0.68 1.02 0 0 Z " fill="#182655" transform="translate(24,0)"/>
<path d="M0 0 C1.65 0 3.3 0 5 0 C5.66 1.32 6.32 2.64 7 4 C5.35 4 3.7 4 2 4 C1.34 2.68 0.68 1.36 0 0 Z " fill="#1D2673" transform="translate(17,49)"/>
<path d="M0 0 C2.55028983 1.27514492 2.93081711 2.40341297 4 5 C4 5.99 4 6.98 4 8 C2.02 8 0.04 8 -2 8 C-1.34 7.34 -0.68 6.68 0 6 C0.16681109 2.91652174 0.16681109 2.91652174 0 0 Z " fill="#22408F" transform="translate(18,41)"/>
<path d="M0 0 C0.33 0 0.66 0 1 0 C1 3.63 1 7.26 1 11 C0.34 11 -0.32 11 -1 11 C-1.33 11.66 -1.66 12.32 -2 13 C-1.39174965 8.65535464 -0.73832608 4.32448133 0 0 Z " fill="#1C2E66" transform="translate(5,32)"/>
<path d="M0 0 C2 2 2 2 2 5 C-0.31 5.33 -2.62 5.66 -5 6 C-3.35 4.02 -1.7 2.04 0 0 Z " fill="#5993D5" transform="translate(39,10)"/>
<path d="M0 0 C-1.1875 1.5 -1.1875 1.5 -3 3 C-5.6875 3.1875 -5.6875 3.1875 -8 3 C-8 2.34 -8 1.68 -8 1 C-2.25 -1.125 -2.25 -1.125 0 0 Z " fill="#1E2D79" transform="translate(50,56)"/>
<path d="M0 0 C0.99 0.33 1.98 0.66 3 1 C4.03039555 5.53374042 4.17766075 6.64467851 2 11 C1.34 7.37 0.68 3.74 0 0 Z " fill="#2858B2" transform="translate(8,41)"/>
<path d="M0 0 C3 1 6 2 9 3 C7.375 4.1875 7.375 4.1875 5 5 C1.75 3.625 1.75 3.625 -1 2 C-0.67 1.34 -0.34 0.68 0 0 Z " fill="#1C87E5" transform="translate(47,20)"/>
<path d="M0 0 C1.67542976 0.28604898 3.34385343 0.61781233 5 1 C3.09598862 2.90401138 1.66574314 3.93520439 -1.046875 4.19921875 C-3.03233273 4.1886578 -5.0169914 4.09915043 -7 4 C-7 3.67 -7 3.34 -7 3 C-5.5459375 2.5359375 -5.5459375 2.5359375 -4.0625 2.0625 C-1.15934208 1.30476658 -1.15934208 1.30476658 0 0 Z " fill="#202F69" transform="translate(33,0)"/>
<path d="M0 0 C0.33 0 0.66 0 1 0 C1 4.62 1 9.24 1 14 C0.67 14 0.34 14 0 14 C-0.75429081 9.00282342 -1.3515243 4.8992756 0 0 Z " fill="#35BAF1" transform="translate(63,38)"/>
<path d="M0 0 C0.33 0.66 0.66 1.32 1 2 C1.99 1.67 2.98 1.34 4 1 C3.67 2.65 3.34 4.3 3 6 C3.66 6.33 4.32 6.66 5 7 C4.01 7 3.02 7 2 7 C2 5.68 2 4.36 2 3 C1.01 3.33 0.02 3.66 -1 4 C-1 1 -1 1 0 0 Z " fill="#2369D1" transform="translate(56,19)"/>
</svg>
